<svg width="31" height="25" viewBox="0 0 31 25" fill="none" xmlns="http://www.w3.org/2000/svg">
<path d="M15.5 0C12.4324 0 9.61291 1.12858 7.44727 2.99479C7.33871 3.0819 7.24868 3.19016 7.18252 3.3131C7.11636 3.43605 7.07544 3.57116 7.0622 3.71039C7.04896 3.84962 7.06366 3.99011 7.10543 4.12349C7.14721 4.25686 7.2152 4.3804 7.30535 4.48672C7.3955 4.59304 7.50597 4.67997 7.63016 4.74233C7.75435 4.80469 7.88973 4.8412 8.02823 4.84968C8.16672 4.85817 8.30549 4.83845 8.43626 4.79171C8.56703 4.74497 8.68713 4.67217 8.78939 4.57764C10.5959 3.02093 12.9338 2.08333 15.5 2.08333C20.8698 2.08333 25.266 6.18534 25.7829 11.4583H22.7333L26.8667 17.7083L31 11.4583H27.8475C27.3192 5.05381 21.9871 0 15.5 0ZM4.13333 7.29167L0 13.5417H3.15247C3.68081 19.9462 9.0129 25 15.5 25C18.5676 25 21.3871 23.8714 23.5527 22.0052C23.6613 21.9181 23.7513 21.8098 23.8175 21.6869C23.8836 21.564 23.9246 21.4288 23.9378 21.2896C23.951 21.1504 23.9363 21.0099 23.8946 20.8765C23.8528 20.7431 23.7848 20.6196 23.6947 20.5133C23.6045 20.407 23.494 20.32 23.3698 20.2577C23.2456 20.1953 23.1103 20.1588 22.9718 20.1503C22.8333 20.1418 22.6945 20.1615 22.5637 20.2083C22.433 20.255 22.3129 20.3278 22.2106 20.4224C20.4041 21.9791 18.0662 22.9167 15.5 22.9167C10.1302 22.9167 5.73398 18.8147 5.21712 13.5417H8.26667L4.13333 7.29167Z" fill="white"/>
</svg>
