<svg width="31" height="32" viewBox="0 0 31 32" fill="none" xmlns="http://www.w3.org/2000/svg">
<path d="M15.5 0C15.1574 0 14.8289 0.134857 14.5867 0.374903C14.3444 0.61495 14.2083 0.940523 14.2083 1.28C14.2083 1.61948 14.3444 1.94505 14.5867 2.1851C14.8289 2.42514 15.1574 2.56 15.5 2.56C15.8426 2.56 16.1711 2.42514 16.4133 2.1851C16.6556 1.94505 16.7917 1.61948 16.7917 1.28C16.7917 0.940523 16.6556 0.61495 16.4133 0.374903C16.1711 0.134857 15.8426 0 15.5 0ZM15.5 5.12C15.1574 5.12 14.8289 5.25486 14.5867 5.4949C14.3444 5.73495 14.2083 6.06052 14.2083 6.4C14.2083 6.73948 14.3444 7.06505 14.5867 7.3051C14.8289 7.54514 15.1574 7.68 15.5 7.68C15.8426 7.68 16.1711 7.54514 16.4133 7.3051C16.6556 7.06505 16.7917 6.73948 16.7917 6.4C16.7917 6.06052 16.6556 5.73495 16.4133 5.4949C16.1711 5.25486 15.8426 5.12 15.5 5.12ZM15.4798 10.2225C15.1377 10.2278 14.8117 10.3674 14.5733 10.6107C14.3349 10.8539 14.2037 11.181 14.2083 11.52V21.23L11.2466 18.295C11.1262 18.1724 10.9823 18.0749 10.8233 18.0084C10.6643 17.9418 10.4934 17.9075 10.3208 17.9075C10.0638 17.9076 9.81271 17.9836 9.59957 18.1258C9.38644 18.268 9.22095 18.47 9.12426 18.7059C9.02757 18.9418 9.00407 19.201 9.05678 19.4502C9.10948 19.6994 9.23599 19.9274 9.42013 20.105L15.5 26.13L21.5799 20.105C21.7038 19.9871 21.8028 19.8458 21.871 19.6895C21.9392 19.5331 21.9752 19.3649 21.9769 19.1946C21.9787 19.0243 21.9461 18.8554 21.8812 18.6977C21.8162 18.54 21.7202 18.3968 21.5986 18.2764C21.4771 18.156 21.3326 18.0608 21.1735 17.9964C21.0144 17.932 20.8439 17.8998 20.6721 17.9015C20.5002 17.9032 20.3305 17.9389 20.1727 18.0065C20.015 18.0741 19.8724 18.1722 19.7534 18.295L16.7917 21.23V11.52C16.794 11.3487 16.7617 11.1788 16.6966 11.0201C16.6314 10.8615 16.5349 10.7174 16.4125 10.5964C16.2902 10.4754 16.1446 10.38 15.9844 10.3158C15.8242 10.2515 15.6526 10.2198 15.4798 10.2225ZM1.2716 20.4625C0.929468 20.4678 0.603439 20.6074 0.365062 20.8507C0.126685 21.0939 -0.00456399 21.4209 0.000121263 21.76V29.44C0.000121263 30.8391 1.17157 32 2.58343 32H28.4166C29.8284 32 30.9999 30.8391 30.9999 29.44V21.76C31.0023 21.5904 30.9707 21.422 30.9068 21.2646C30.843 21.1072 30.7483 20.9639 30.6281 20.8431C30.5079 20.7223 30.3647 20.6264 30.2068 20.561C30.0489 20.4955 29.8794 20.4618 29.7082 20.4618C29.537 20.4618 29.3676 20.4955 29.2097 20.561C29.0517 20.6264 28.9085 20.7223 28.7883 20.8431C28.6682 20.9639 28.5734 21.1072 28.5096 21.2646C28.4458 21.422 28.4141 21.5904 28.4166 21.76V29.44H2.58343V21.76C2.5858 21.5887 2.55347 21.4188 2.48835 21.2601C2.42323 21.1015 2.32664 20.9574 2.20432 20.8364C2.082 20.7154 1.93642 20.62 1.7762 20.5558C1.61599 20.4915 1.4444 20.4598 1.2716 20.4625Z" fill="white"/>
</svg>
