<svg width="32" height="23" viewBox="0 0 32 23" fill="none" xmlns="http://www.w3.org/2000/svg">
<path d="M1.28 1.68888e-09C0.940525 1.68888e-09 0.614952 0.134623 0.374906 0.374253C0.134859 0.613882 2.44135e-06 0.93889 2.44135e-06 1.27778C-8.13782e-07 1.27944 -8.13782e-07 1.28111 2.44135e-06 1.28277V11.5V21.7172C-8.13449e-07 21.7189 -8.13449e-07 21.7206 2.44135e-06 21.7222C2.44135e-06 22.0611 0.134859 22.3861 0.374906 22.6257C0.614952 22.8654 0.940525 23 1.28 23C1.55269 22.9995 1.81808 22.912 2.0375 22.7504H2.04C2.05183 22.7415 2.0635 22.7323 2.075 22.723L15.36 13.0798V21.7172C15.36 21.7189 15.36 21.7206 15.36 21.7222C15.36 22.0611 15.4949 22.3861 15.7349 22.6257C15.975 22.8654 16.3005 23 16.64 23C16.9127 22.9995 17.1781 22.912 17.3975 22.7504H17.4C17.4118 22.7415 17.4235 22.7323 17.435 22.723L31.4125 12.5756C31.5928 12.4598 31.7412 12.3006 31.8438 12.1127C31.9465 11.9247 32.0002 11.7141 32 11.5C31.9999 11.2903 31.948 11.0838 31.849 10.8989C31.7501 10.7139 31.607 10.5561 31.4325 10.4393L17.4 0.249566C17.1799 0.0874486 16.9135 -1.40334e-05 16.64 1.68888e-09C16.3005 1.68888e-09 15.975 0.134623 15.7349 0.374253C15.4949 0.613882 15.36 0.93889 15.36 1.27778C15.36 1.27944 15.36 1.28111 15.36 1.28277V9.92274L2.04 0.249566C1.81989 0.0874486 1.55354 -1.40334e-05 1.28 1.68888e-09Z" fill="white"/>
</svg>
