<svg width="31" height="32" viewBox="0 0 31 32" fill="none" xmlns="http://www.w3.org/2000/svg">
<path d="M16.7198 0C16.499 0.00031924 16.2825 0.0610804 16.0933 0.175805C15.9041 0.29053 15.7492 0.454918 15.6453 0.651442H15.6429L10.8733 9.59135L1.72487 0.360577L0 2.10096L29.2751 31.6394L31 29.899L21.3345 20.1466L23.9242 15.2909L23.9195 15.2837C23.9923 15.1259 24.0386 14.9546 24.0386 14.7692C24.0386 14.0898 23.4921 13.5385 22.8188 13.5385H17.9396V1.23077C17.9396 0.904349 17.8111 0.591298 17.5823 0.360484C17.3536 0.12967 17.0433 0 16.7198 0ZM8.47425 14.0865L7.13534 16.5962L7.13772 16.5986C7.02328 16.7893 6.96235 17.0078 6.96142 17.2308C6.96142 17.5572 7.08993 17.8702 7.31869 18.1011C7.54745 18.3319 7.85771 18.4615 8.18122 18.4615H12.8103L8.47425 14.0865ZM13.0604 18.7139V30.7692C13.0604 31.0957 13.1889 31.4087 13.4177 31.6395C13.6464 31.8703 13.9567 32 14.2802 32C14.5052 31.9998 14.7257 31.9368 14.9175 31.8181C15.1092 31.6993 15.2646 31.5293 15.3666 31.3269H15.369L18.9354 24.6418L13.0604 18.7139Z" fill="white"/>
</svg>
