<svg width="9" height="13" viewBox="0 0 9 13" fill="none" xmlns="http://www.w3.org/2000/svg">
<path d="M8.5 0C8.45065 0.000276354 8.40162 0.00814812 8.35449 0.0233594L3.86328 1.05828L3.86133 1.06133C3.75731 1.09256 3.66584 1.15806 3.60068 1.24798C3.53552 1.33791 3.50019 1.4474 3.5 1.56V7.28C3.5 7.8546 3.0525 8.32 2.5 8.32H2.25195C2.2513 8.32 2.25065 8.32 2.25 8.32C1.65326 8.32 1.08097 8.56653 0.65901 9.00537C0.237053 9.44421 0 10.0394 0 10.66C0 11.2806 0.237053 11.8758 0.65901 12.3146C1.08097 12.7535 1.65326 13 2.25 13C2.84674 13 3.41903 12.7535 3.84099 12.3146C4.26295 11.8758 4.5 11.2806 4.5 10.66V4.05641L8.57715 3.11391C8.69498 3.09477 8.80235 3.03246 8.87989 2.93822C8.95743 2.84399 9.00003 2.72403 9 2.6V0.52C9 0.382087 8.94732 0.249823 8.85355 0.152304C8.75979 0.0547855 8.63261 0 8.5 0Z" fill="white"/>
</svg>
