<svg width="32" height="29" viewBox="0 0 32 29" fill="none" xmlns="http://www.w3.org/2000/svg">
<path d="M16 0L6.4 9.66667H0V19.3333H6.4L16 29V0ZM19.2 0.160482V3.3827C24.3 4.13791 28.2762 8.29274 28.7531 13.4553C28.7849 13.7995 28.8 14.1476 28.8 14.5C28.8 20.1389 24.64 24.8117 19.2 25.6173V28.8395C26.4 28.034 32 21.9111 32 14.5C32 7.08889 26.4 0.966037 19.2 0.160482ZM19.2 6.60493V9.98763C21.12 10.6321 22.4 12.4056 22.4 14.5C22.4 16.5944 21.12 18.3679 19.2 19.0124V22.3951C22.88 21.5895 25.6 18.3667 25.6 14.5C25.6 10.6333 22.88 7.41048 19.2 6.60493Z" fill="white"/>
</svg>
