<svg width="31" height="31" viewBox="0 0 31 31" fill="none" xmlns="http://www.w3.org/2000/svg">
<path d="M14.2083 0V6.45833C14.2059 6.62949 14.2375 6.79943 14.3014 6.95826C14.3652 7.1171 14.4599 7.26166 14.5801 7.38356C14.7003 7.50545 14.8435 7.60224 15.0014 7.66831C15.1593 7.73437 15.3288 7.7684 15.5 7.7684C15.6712 7.7684 15.8406 7.73437 15.9986 7.66831C16.1565 7.60224 16.2997 7.50545 16.4199 7.38356C16.5401 7.26166 16.6348 7.1171 16.6986 6.95826C16.7625 6.79943 16.7941 6.62949 16.7917 6.45833V2.84318C23.2991 3.51889 28.4167 8.80987 28.4167 15.5C28.4167 22.6488 22.6488 28.4167 15.5 28.4167C8.35123 28.4167 2.58333 22.6488 2.58333 15.5C2.58333 12.3306 3.72248 9.44563 5.6132 7.20003C5.72254 7.07017 5.80523 6.92003 5.85655 6.75821C5.90786 6.59638 5.9268 6.42604 5.91228 6.25689C5.89776 6.08775 5.85007 5.92312 5.77193 5.77241C5.69378 5.62169 5.58671 5.48785 5.45684 5.37852C5.32697 5.26919 5.17683 5.18651 5.015 5.1352C4.85317 5.08389 4.68282 5.06496 4.51368 5.07949C4.34453 5.09402 4.17991 5.14173 4.0292 5.21988C3.8785 5.29804 3.74466 5.40511 3.63534 5.53499C1.36947 8.22614 0 11.7099 0 15.5C0 24.045 6.95502 31 15.5 31C24.045 31 31 24.045 31 15.5C31 6.95502 24.045 0 15.5 0H14.2083ZM8.2596 7.76009C7.88137 7.81525 7.59904 8.25888 7.85091 8.65316C9.74191 11.6201 12.9708 16.6238 13.6735 17.3265C14.6823 18.3353 16.3177 18.3353 17.3265 17.3265C18.3353 16.3177 18.3353 14.6823 17.3265 13.6735C16.6238 12.9695 11.6201 9.74191 8.65316 7.85091C8.52173 7.76695 8.38568 7.7417 8.2596 7.76009Z" fill="white"/>
</svg>
