<svg width="31" height="29" viewBox="0 0 31 29" fill="none" xmlns="http://www.w3.org/2000/svg">
<path d="M21.9507 0C20.2823 0 18.8606 1.11079 18.3222 2.63636H1.30851C1.13755 2.63389 0.967818 2.66616 0.809172 2.7313C0.650527 2.79644 0.506133 2.89314 0.384383 3.01579C0.262634 3.13844 0.165956 3.28459 0.0999684 3.44575C0.0339809 3.6069 0 3.77985 0 3.95455C0 4.12924 0.0339809 4.30219 0.0999684 4.46335C0.165956 4.6245 0.262634 4.77065 0.384383 4.8933C0.506133 5.01595 0.650527 5.11265 0.809172 5.17779C0.967818 5.24293 1.13755 5.2752 1.30851 5.27273H18.3222C18.8606 6.7983 20.2823 7.90909 21.9507 7.90909C23.619 7.90909 25.0407 6.7983 25.5792 5.27273H29.6915C29.8624 5.2752 30.0322 5.24293 30.1908 5.17779C30.3495 5.11265 30.4939 5.01595 30.6156 4.8933C30.7374 4.77065 30.834 4.6245 30.9 4.46335C30.966 4.30219 31 4.12924 31 3.95455C31 3.77985 30.966 3.6069 30.9 3.44575C30.834 3.28459 30.7374 3.13844 30.6156 3.01579C30.4939 2.89314 30.3495 2.79644 30.1908 2.7313C30.0322 2.66616 29.8624 2.63389 29.6915 2.63636H25.5792C25.0407 1.11079 23.619 0 21.9507 0ZM21.9507 2.63636C22.6523 2.63636 23.1872 3.17525 23.2257 3.87988C23.2228 3.93047 23.2228 3.98119 23.2257 4.03178C23.186 4.73512 22.6514 5.27273 21.9507 5.27273C21.2491 5.27273 20.7142 4.73384 20.6757 4.02921C20.6785 3.97862 20.6785 3.9279 20.6757 3.87731C20.7154 3.17397 21.2499 2.63636 21.9507 2.63636ZM11.6296 10.5455C9.96124 10.5455 8.53954 11.6562 8.00109 13.1818H1.30851C1.13755 13.1793 0.967818 13.2116 0.809172 13.2768C0.650527 13.3419 0.506133 13.4386 0.384383 13.5612C0.262634 13.6839 0.165956 13.83 0.0999684 13.9912C0.0339809 14.1524 0 14.3253 0 14.5C0 14.6747 0.0339809 14.8476 0.0999684 15.0088C0.165956 15.17 0.262634 15.3161 0.384383 15.4388C0.506133 15.5614 0.650527 15.6581 0.809172 15.7232C0.967818 15.7884 1.13755 15.8207 1.30851 15.8182H8.00109C8.53954 17.3438 9.96124 18.4545 11.6296 18.4545C13.2979 18.4545 14.7197 17.3438 15.2581 15.8182H29.6915C29.8624 15.8207 30.0322 15.7884 30.1908 15.7232C30.3495 15.6581 30.4939 15.5614 30.6156 15.4388C30.7374 15.3161 30.834 15.17 30.9 15.0088C30.966 14.8476 31 14.6747 31 14.5C31 14.3253 30.966 14.1524 30.9 13.9912C30.834 13.83 30.7374 13.6839 30.6156 13.5612C30.4939 13.4386 30.3495 13.3419 30.1908 13.2768C30.0322 13.2116 29.8624 13.1793 29.6915 13.1818H15.2581C14.7197 11.6562 13.2979 10.5455 11.6296 10.5455ZM11.6296 13.1818C12.3312 13.1818 12.8661 13.7207 12.9046 14.4253C12.9018 14.4759 12.9018 14.5266 12.9046 14.5772C12.8649 15.2806 12.3303 15.8182 11.6296 15.8182C10.928 15.8182 10.3931 15.2793 10.3546 14.5747C10.3574 14.5241 10.3574 14.4734 10.3546 14.4228C10.3943 13.7194 10.9288 13.1818 11.6296 13.1818ZM16.7901 21.0909C15.1218 21.0909 13.7001 22.2017 13.1616 23.7273H1.30851C1.13755 23.7248 0.967818 23.7571 0.809172 23.8222C0.650527 23.8873 0.506133 23.984 0.384383 24.1067C0.262634 24.2293 0.165956 24.3755 0.0999684 24.5367C0.0339809 24.6978 0 24.8708 0 25.0455C0 25.2201 0.0339809 25.3931 0.0999684 25.5543C0.165956 25.7154 0.262634 25.8616 0.384383 25.9842C0.506133 26.1069 0.650527 26.2036 0.809172 26.2687C0.967818 26.3338 1.13755 26.3661 1.30851 26.3636H13.1616C13.7001 27.8892 15.1218 29 16.7901 29C18.4585 29 19.8802 27.8892 20.4186 26.3636H29.6915C29.8624 26.3661 30.0322 26.3338 30.1908 26.2687C30.3495 26.2036 30.4939 26.1069 30.6156 25.9842C30.7374 25.8616 30.834 25.7154 30.9 25.5543C30.966 25.3931 31 25.2201 31 25.0455C31 24.8708 30.966 24.6978 30.9 24.5367C30.834 24.3755 30.7374 24.2293 30.6156 24.1067C30.4939 23.984 30.3495 23.8873 30.1908 23.8222C30.0322 23.7571 29.8624 23.7248 29.6915 23.7273H20.4186C19.8802 22.2017 18.4585 21.0909 16.7901 21.0909ZM16.7901 23.7273C17.4918 23.7273 18.0266 24.2662 18.0652 24.9708C18.0623 25.0214 18.0623 25.0721 18.0652 25.1227C18.0254 25.826 17.4909 26.3636 16.7901 26.3636C16.0885 26.3636 15.5536 25.8247 15.5151 25.1201C15.518 25.0695 15.518 25.0188 15.5151 24.9682C15.5548 24.2649 16.0894 23.7273 16.7901 23.7273Z" fill="white"/>
</svg>
